<svg width="607" height="158" xmlns="http://www.w3.org/2000/svg" xmlns:xlink="http://www.w3.org/1999/xlink" xml:space="preserve" overflow="hidden"><defs><clipPath id="clip0"><rect x="922" y="1223" width="607" height="158"/></clipPath></defs><g clip-path="url(#clip0)" transform="translate(-922 -1223)"><path d="M1137.51 1245.11C1164.26 1218.93 1207.16 1219.38 1233.34 1246.13L1184.92 1293.53Z" stroke="#DAF1DE" stroke-width="4.58333" stroke-miterlimit="8" fill="#DAF1DE" fill-rule="evenodd"/><path d="M1232.89 1343.06C1206.14 1369.24 1163.24 1368.79 1137.06 1342.04L1185.48 1294.64Z" stroke="#DAF1DE" stroke-width="4.58333" stroke-miterlimit="8" fill="#FFFFFF" fill-rule="evenodd"/><path d="M1177.51 1332.64C1173.66 1328.24 1174.11 1321.55 1178.52 1317.7 1181.18 1315.38 1183.84 1313.06 1186.49 1310.74 1188.82 1313.4 1191.14 1316.05 1193.46 1318.71 1197.3 1323.12 1196.85 1329.81 1192.45 1333.65 1188.04 1337.5 1181.35 1337.05 1177.51 1332.64Z" stroke="#000000" stroke-width="4.58333" stroke-miterlimit="8" fill="#0070C0" fill-rule="evenodd"/><text font-family="Josefin Slab,Josefin Slab_MSFontService,sans-serif" font-weight="700" font-size="46" transform="matrix(1 0 0 1 985.484 1283)">Carbon <tspan font-size="46" x="24.0625" y="55">Credit</tspan><tspan font-size="46" x="255.582" y="0">Independent </tspan><tspan font-size="46" x="255.582" y="56">Proof</tspan></text></g></svg>