<svg width="581" height="582" viewBox="0 0 581 582" fill="none" xmlns="http://www.w3.org/2000/svg">
<circle cx="290.5" cy="290.5" r="290" stroke="#3CC4FF"/>
<line y1="289.5" x2="581" y2="289.5" stroke="#3CC4FF"/>
<path d="M33 417C134.812 378.112 247.099 371.47 344.18 378.409C432.47 384.72 508.182 402.264 552 417" stroke="#3CC4FF"/>
<path d="M102 510C247.588 442.989 412.662 482.079 477 510" stroke="#3CC4FF"/>
<path d="M87 290C87 420.925 152.333 523.219 185 558" stroke="#3CC4FF"/>
<path d="M393.205 556.726C478.016 457.193 494.792 337.258 492.579 289.732" stroke="#3CC4FF"/>
<path d="M170 290C170 432.161 232.667 543.234 264 581" stroke="#3CC4FF"/>
<path d="M317.71 578.32C401.856 464.042 417.475 337.844 414.766 289.029" stroke="#3CC4FF"/>
<line x1="291.5" y1="290" x2="291.5" y2="581" stroke="#3CC4FF"/>
<path d="M41.708 223.53C41.708 221.49 42.168 219.66 43.088 218.04C44.008 216.4 45.258 215.12 46.838 214.2C48.438 213.28 50.208 212.82 52.148 212.82C54.428 212.82 56.418 213.37 58.118 214.47C59.818 215.57 61.058 217.13 61.838 219.15H58.568C57.988 217.89 57.148 216.92 56.048 216.24C54.968 215.56 53.668 215.22 52.148 215.22C50.688 215.22 49.378 215.56 48.218 216.24C47.058 216.92 46.148 217.89 45.488 219.15C44.828 220.39 44.498 221.85 44.498 223.53C44.498 225.19 44.828 226.65 45.488 227.91C46.148 229.15 47.058 230.11 48.218 230.79C49.378 231.47 50.688 231.81 52.148 231.81C53.668 231.81 54.968 231.48 56.048 230.82C57.148 230.14 57.988 229.17 58.568 227.91H61.838C61.058 229.91 59.818 231.46 58.118 232.56C56.418 233.64 54.428 234.18 52.148 234.18C50.208 234.18 48.438 233.73 46.838 232.83C45.258 231.91 44.008 230.64 43.088 229.02C42.168 227.4 41.708 225.57 41.708 223.53ZM64.8818 225.72C64.8818 224.04 65.2218 222.57 65.9018 221.31C66.5818 220.03 67.5118 219.04 68.6918 218.34C69.8918 217.64 71.2218 217.29 72.6818 217.29C74.1218 217.29 75.3718 217.6 76.4318 218.22C77.4918 218.84 78.2818 219.62 78.8018 220.56V217.56H81.5618V234H78.8018V230.94C78.2618 231.9 77.4518 232.7 76.3718 233.34C75.3118 233.96 74.0718 234.27 72.6518 234.27C71.1918 234.27 69.8718 233.91 68.6918 233.19C67.5118 232.47 66.5818 231.46 65.9018 230.16C65.2218 228.86 64.8818 227.38 64.8818 225.72ZM78.8018 225.75C78.8018 224.51 78.5518 223.43 78.0518 222.51C77.5518 221.59 76.8718 220.89 76.0118 220.41C75.1718 219.91 74.2418 219.66 73.2218 219.66C72.2018 219.66 71.2718 219.9 70.4318 220.38C69.5918 220.86 68.9218 221.56 68.4218 222.48C67.9218 223.4 67.6718 224.48 67.6718 225.72C67.6718 226.98 67.9218 228.08 68.4218 229.02C68.9218 229.94 69.5918 230.65 70.4318 231.15C71.2718 231.63 72.2018 231.87 73.2218 231.87C74.2418 231.87 75.1718 231.63 76.0118 231.15C76.8718 230.65 77.5518 229.94 78.0518 229.02C78.5518 228.08 78.8018 226.99 78.8018 225.75ZM88.9052 220.23C89.3852 219.29 90.0652 218.56 90.9452 218.04C91.8452 217.52 92.9352 217.26 94.2152 217.26V220.08H93.4952C90.4352 220.08 88.9052 221.74 88.9052 225.06V234H86.1752V217.56H88.9052V220.23ZM100.097 220.62C100.657 219.64 101.477 218.84 102.557 218.22C103.637 217.6 104.867 217.29 106.247 217.29C107.727 217.29 109.057 217.64 110.237 218.34C111.417 219.04 112.347 220.03 113.027 221.31C113.707 222.57 114.047 224.04 114.047 225.72C114.047 227.38 113.707 228.86 113.027 230.16C112.347 231.46 111.407 232.47 110.207 233.19C109.027 233.91 107.707 234.27 106.247 234.27C104.827 234.27 103.577 233.96 102.497 233.34C101.437 232.72 100.637 231.93 100.097 230.97V234H97.3666V211.8H100.097V220.62ZM111.257 225.72C111.257 224.48 111.007 223.4 110.507 222.48C110.007 221.56 109.327 220.86 108.467 220.38C107.627 219.9 106.697 219.66 105.677 219.66C104.677 219.66 103.747 219.91 102.887 220.41C102.047 220.89 101.367 221.6 100.847 222.54C100.347 223.46 100.097 224.53 100.097 225.75C100.097 226.99 100.347 228.08 100.847 229.02C101.367 229.94 102.047 230.65 102.887 231.15C103.747 231.63 104.677 231.87 105.677 231.87C106.697 231.87 107.627 231.63 108.467 231.15C109.327 230.65 110.007 229.94 110.507 229.02C111.007 228.08 111.257 226.98 111.257 225.72ZM124.81 234.27C123.27 234.27 121.87 233.92 120.61 233.22C119.37 232.52 118.39 231.53 117.67 230.25C116.97 228.95 116.62 227.45 116.62 225.75C116.62 224.07 116.98 222.59 117.7 221.31C118.44 220.01 119.44 219.02 120.7 218.34C121.96 217.64 123.37 217.29 124.93 217.29C126.49 217.29 127.9 217.64 129.16 218.34C130.42 219.02 131.41 220 132.13 221.28C132.87 222.56 133.24 224.05 133.24 225.75C133.24 227.45 132.86 228.95 132.1 230.25C131.36 231.53 130.35 232.52 129.07 233.22C127.79 233.92 126.37 234.27 124.81 234.27ZM124.81 231.87C125.79 231.87 126.71 231.64 127.57 231.18C128.43 230.72 129.12 230.03 129.64 229.11C130.18 228.19 130.45 227.07 130.45 225.75C130.45 224.43 130.19 223.31 129.67 222.39C129.15 221.47 128.47 220.79 127.63 220.35C126.79 219.89 125.88 219.66 124.9 219.66C123.9 219.66 122.98 219.89 122.14 220.35C121.32 220.79 120.66 221.47 120.16 222.39C119.66 223.31 119.41 224.43 119.41 225.75C119.41 227.09 119.65 228.22 120.13 229.14C120.63 230.06 121.29 230.75 122.11 231.21C122.93 231.65 123.83 231.87 124.81 231.87ZM144.84 217.26C146.84 217.26 148.46 217.87 149.7 219.09C150.94 220.29 151.56 222.03 151.56 224.31V234H148.86V224.7C148.86 223.06 148.45 221.81 147.63 220.95C146.81 220.07 145.69 219.63 144.27 219.63C142.83 219.63 141.68 220.08 140.82 220.98C139.98 221.88 139.56 223.19 139.56 224.91V234H136.83V217.56H139.56V219.9C140.1 219.06 140.83 218.41 141.75 217.95C142.69 217.49 143.72 217.26 144.84 217.26ZM162.997 223.53C162.997 221.49 163.457 219.66 164.377 218.04C165.297 216.4 166.547 215.12 168.127 214.2C169.727 213.28 171.497 212.82 173.437 212.82C175.717 212.82 177.707 213.37 179.407 214.47C181.107 215.57 182.347 217.13 183.127 219.15H179.857C179.277 217.89 178.437 216.92 177.337 216.24C176.257 215.56 174.957 215.22 173.437 215.22C171.977 215.22 170.667 215.56 169.507 216.24C168.347 216.92 167.437 217.89 166.777 219.15C166.117 220.39 165.787 221.85 165.787 223.53C165.787 225.19 166.117 226.65 166.777 227.91C167.437 229.15 168.347 230.11 169.507 230.79C170.667 231.47 171.977 231.81 173.437 231.81C174.957 231.81 176.257 231.48 177.337 230.82C178.437 230.14 179.277 229.17 179.857 227.91H183.127C182.347 229.91 181.107 231.46 179.407 232.56C177.707 233.64 175.717 234.18 173.437 234.18C171.497 234.18 169.727 233.73 168.127 232.83C166.547 231.91 165.297 230.64 164.377 229.02C163.457 227.4 162.997 225.57 162.997 223.53ZM189.921 220.23C190.401 219.29 191.081 218.56 191.961 218.04C192.861 217.52 193.951 217.26 195.231 217.26V220.08H194.511C191.451 220.08 189.921 221.74 189.921 225.06V234H187.191V217.56H189.921V220.23ZM213.382 225.15C213.382 225.67 213.352 226.22 213.292 226.8H200.152C200.252 228.42 200.802 229.69 201.802 230.61C202.822 231.51 204.052 231.96 205.492 231.96C206.672 231.96 207.652 231.69 208.432 231.15C209.232 230.59 209.792 229.85 210.112 228.93H213.052C212.612 230.51 211.732 231.8 210.412 232.8C209.092 233.78 207.452 234.27 205.492 234.27C203.932 234.27 202.532 233.92 201.292 233.22C200.072 232.52 199.112 231.53 198.412 230.25C197.712 228.95 197.362 227.45 197.362 225.75C197.362 224.05 197.702 222.56 198.382 221.28C199.062 220 200.012 219.02 201.232 218.34C202.472 217.64 203.892 217.29 205.492 217.29C207.052 217.29 208.432 217.63 209.632 218.31C210.832 218.99 211.752 219.93 212.392 221.13C213.052 222.31 213.382 223.65 213.382 225.15ZM210.562 224.58C210.562 223.54 210.332 222.65 209.872 221.91C209.412 221.15 208.782 220.58 207.982 220.2C207.202 219.8 206.332 219.6 205.372 219.6C203.992 219.6 202.812 220.04 201.832 220.92C200.872 221.8 200.322 223.02 200.182 224.58H210.562ZM215.966 225.72C215.966 224.04 216.306 222.57 216.986 221.31C217.666 220.03 218.596 219.04 219.776 218.34C220.976 217.64 222.316 217.29 223.796 217.29C225.076 217.29 226.266 217.59 227.366 218.19C228.466 218.77 229.306 219.54 229.886 220.5V211.8H232.646V234H229.886V230.91C229.346 231.89 228.546 232.7 227.486 233.34C226.426 233.96 225.186 234.27 223.766 234.27C222.306 234.27 220.976 233.91 219.776 233.19C218.596 232.47 217.666 231.46 216.986 230.16C216.306 228.86 215.966 227.38 215.966 225.72ZM229.886 225.75C229.886 224.51 229.636 223.43 229.136 222.51C228.636 221.59 227.956 220.89 227.096 220.41C226.256 219.91 225.326 219.66 224.306 219.66C223.286 219.66 222.356 219.9 221.516 220.38C220.676 220.86 220.006 221.56 219.506 222.48C219.006 223.4 218.756 224.48 218.756 225.72C218.756 226.98 219.006 228.08 219.506 229.02C220.006 229.94 220.676 230.65 221.516 231.15C222.356 231.63 223.286 231.87 224.306 231.87C225.326 231.87 226.256 231.63 227.096 231.15C227.956 230.65 228.636 229.94 229.136 229.02C229.636 228.08 229.886 226.99 229.886 225.75ZM238.669 214.89C238.149 214.89 237.709 214.71 237.349 214.35C236.989 213.99 236.809 213.55 236.809 213.03C236.809 212.51 236.989 212.07 237.349 211.71C237.709 211.35 238.149 211.17 238.669 211.17C239.169 211.17 239.589 211.35 239.929 211.71C240.289 212.07 240.469 212.51 240.469 213.03C240.469 213.55 240.289 213.99 239.929 214.35C239.589 214.71 239.169 214.89 238.669 214.89ZM239.989 217.56V234H237.259V217.56H239.989ZM247.972 219.81V229.5C247.972 230.3 248.142 230.87 248.482 231.21C248.822 231.53 249.412 231.69 250.252 231.69H252.262V234H249.802C248.282 234 247.142 233.65 246.382 232.95C245.622 232.25 245.242 231.1 245.242 229.5V219.81H243.112V217.56H245.242V213.42H247.972V217.56H252.262V219.81H247.972ZM266.298 213.09V234H263.568V213.09H266.298ZM278.961 217.26C280.961 217.26 282.581 217.87 283.821 219.09C285.061 220.29 285.681 222.03 285.681 224.31V234H282.981V224.7C282.981 223.06 282.571 221.81 281.751 220.95C280.931 220.07 279.811 219.63 278.391 219.63C276.951 219.63 275.801 220.08 274.941 220.98C274.101 221.88 273.681 223.19 273.681 224.91V234H270.951V217.56H273.681V219.9C274.221 219.06 274.951 218.41 275.871 217.95C276.811 217.49 277.841 217.26 278.961 217.26ZM289.12 225.72C289.12 224.04 289.46 222.57 290.14 221.31C290.82 220.03 291.75 219.04 292.93 218.34C294.13 217.64 295.47 217.29 296.95 217.29C298.23 217.29 299.42 217.59 300.52 218.19C301.62 218.77 302.46 219.54 303.04 220.5V211.8H305.8V234H303.04V230.91C302.5 231.89 301.7 232.7 300.64 233.34C299.58 233.96 298.34 234.27 296.92 234.27C295.46 234.27 294.13 233.91 292.93 233.19C291.75 232.47 290.82 231.46 290.14 230.16C289.46 228.86 289.12 227.38 289.12 225.72ZM303.04 225.75C303.04 224.51 302.79 223.43 302.29 222.51C301.79 221.59 301.11 220.89 300.25 220.41C299.41 219.91 298.48 219.66 297.46 219.66C296.44 219.66 295.51 219.9 294.67 220.38C293.83 220.86 293.16 221.56 292.66 222.48C292.16 223.4 291.91 224.48 291.91 225.72C291.91 226.98 292.16 228.08 292.66 229.02C293.16 229.94 293.83 230.65 294.67 231.15C295.51 231.63 296.44 231.87 297.46 231.87C298.48 231.87 299.41 231.63 300.25 231.15C301.11 230.65 301.79 229.94 302.29 229.02C302.79 228.08 303.04 226.99 303.04 225.75ZM325.414 225.15C325.414 225.67 325.384 226.22 325.324 226.8L312.184 226.8C312.284 228.42 312.834 229.69 313.834 230.61C314.854 231.51 316.084 231.96 317.524 231.96C318.704 231.96 319.684 231.69 320.464 231.15C321.264 230.59 321.824 229.85 322.144 228.93L325.084 228.93C324.644 230.51 323.764 231.8 322.444 232.8C321.124 233.78 319.484 234.27 317.524 234.27C315.964 234.27 314.564 233.92 313.324 233.22C312.104 232.52 311.144 231.53 310.444 230.25C309.744 228.95 309.394 227.45 309.394 225.75C309.394 224.05 309.734 222.56 310.414 221.28C311.094 220 312.044 219.02 313.264 218.34C314.504 217.64 315.924 217.29 317.524 217.29C319.084 217.29 320.464 217.63 321.664 218.31C322.864 218.99 323.784 219.93 324.424 221.13C325.084 222.31 325.414 223.65 325.414 225.15ZM322.594 224.58C322.594 223.54 322.364 222.65 321.904 221.91C321.444 221.15 320.814 220.58 320.014 220.2C319.234 219.8 318.364 219.6 317.404 219.6C316.024 219.6 314.844 220.04 313.864 220.92C312.904 221.8 312.354 223.02 312.214 224.58H322.594ZM331.747 220.59C332.287 219.65 333.087 218.87 334.147 218.25C335.227 217.61 336.477 217.29 337.897 217.29C339.357 217.29 340.677 217.64 341.857 218.34C343.057 219.04 343.997 220.03 344.677 221.31C345.357 222.57 345.697 224.04 345.697 225.72C345.697 227.38 345.357 228.86 344.677 230.16C343.997 231.46 343.057 232.47 341.857 233.19C340.677 233.91 339.357 234.27 337.897 234.27C336.497 234.27 335.257 233.96 334.177 233.34C333.117 232.7 332.307 231.91 331.747 230.97V241.8H329.017V217.56H331.747V220.59ZM342.907 225.72C342.907 224.48 342.657 223.4 342.157 222.48C341.657 221.56 340.977 220.86 340.117 220.38C339.277 219.9 338.347 219.66 337.327 219.66C336.327 219.66 335.397 219.91 334.537 220.41C333.697 220.89 333.017 221.6 332.497 222.54C331.997 223.46 331.747 224.53 331.747 225.75C331.747 226.99 331.997 228.08 332.497 229.02C333.017 229.94 333.697 230.65 334.537 231.15C335.397 231.63 336.327 231.87 337.327 231.87C338.347 231.87 339.277 231.63 340.117 231.15C340.977 230.65 341.657 229.94 342.157 229.02C342.657 228.08 342.907 226.98 342.907 225.72ZM364.29 225.15C364.29 225.67 364.26 226.22 364.2 226.8H351.06C351.16 228.42 351.71 229.69 352.71 230.61C353.73 231.51 354.96 231.96 356.4 231.96C357.58 231.96 358.56 231.69 359.34 231.15C360.14 230.59 360.7 229.85 361.02 228.93H363.96C363.52 230.51 362.64 231.8 361.32 232.8C360 233.78 358.36 234.27 356.4 234.27C354.84 234.27 353.44 233.92 352.2 233.22C350.98 232.52 350.02 231.53 349.32 230.25C348.62 228.95 348.27 227.45 348.27 225.75C348.27 224.05 348.61 222.56 349.29 221.28C349.97 220 350.92 219.02 352.14 218.34C353.38 217.64 354.8 217.29 356.4 217.29C357.96 217.29 359.34 217.63 360.54 218.31C361.74 218.99 362.66 219.93 363.3 221.13C363.96 222.31 364.29 223.65 364.29 225.15ZM361.47 224.58C361.47 223.54 361.24 222.65 360.78 221.91C360.32 221.15 359.69 220.58 358.89 220.2C358.11 219.8 357.24 219.6 356.28 219.6C354.9 219.6 353.72 220.04 352.74 220.92C351.78 221.8 351.23 223.02 351.09 224.58H361.47ZM375.904 217.26C377.904 217.26 379.524 217.87 380.764 219.09C382.004 220.29 382.624 222.03 382.624 224.31V234H379.924V224.7C379.924 223.06 379.514 221.81 378.694 220.95C377.874 220.07 376.754 219.63 375.334 219.63C373.894 219.63 372.744 220.08 371.884 220.98C371.044 221.88 370.624 223.19 370.624 224.91V234H367.894V217.56H370.624V219.9C371.164 219.06 371.894 218.41 372.814 217.95C373.754 217.49 374.784 217.26 375.904 217.26ZM386.063 225.72C386.063 224.04 386.403 222.57 387.083 221.31C387.763 220.03 388.693 219.04 389.873 218.34C391.073 217.64 392.413 217.29 393.893 217.29C395.173 217.29 396.363 217.59 397.463 218.19C398.563 218.77 399.403 219.54 399.983 220.5V211.8H402.743V234H399.983V230.91C399.443 231.89 398.643 232.7 397.583 233.34C396.523 233.96 395.283 234.27 393.863 234.27C392.403 234.27 391.073 233.91 389.873 233.19C388.693 232.47 387.763 231.46 387.083 230.16C386.403 228.86 386.063 227.38 386.063 225.72ZM399.983 225.75C399.983 224.51 399.733 223.43 399.233 222.51C398.733 221.59 398.053 220.89 397.193 220.41C396.353 219.91 395.423 219.66 394.403 219.66C393.383 219.66 392.453 219.9 391.613 220.38C390.773 220.86 390.103 221.56 389.603 222.48C389.103 223.4 388.853 224.48 388.853 225.72C388.853 226.98 389.103 228.08 389.603 229.02C390.103 229.94 390.773 230.65 391.613 231.15C392.453 231.63 393.383 231.87 394.403 231.87C395.423 231.87 396.353 231.63 397.193 231.15C398.053 230.65 398.733 229.94 399.233 229.02C399.733 228.08 399.983 226.99 399.983 225.75ZM422.357 225.15C422.357 225.67 422.327 226.22 422.267 226.8H409.127C409.227 228.42 409.777 229.69 410.777 230.61C411.797 231.51 413.027 231.96 414.467 231.96C415.647 231.96 416.627 231.69 417.407 231.15C418.207 230.59 418.767 229.85 419.087 228.93H422.027C421.587 230.51 420.707 231.8 419.387 232.8C418.067 233.78 416.427 234.27 414.467 234.27C412.907 234.27 411.507 233.92 410.267 233.22C409.047 232.52 408.087 231.53 407.387 230.25C406.687 228.95 406.337 227.45 406.337 225.75C406.337 224.05 406.677 222.56 407.357 221.28C408.037 220 408.987 219.02 410.207 218.34C411.447 217.64 412.867 217.29 414.467 217.29C416.027 217.29 417.407 217.63 418.607 218.31C419.807 218.99 420.727 219.93 421.367 221.13C422.027 222.31 422.357 223.65 422.357 225.15ZM419.537 224.58C419.537 223.54 419.307 222.65 418.847 221.91C418.387 221.15 417.757 220.58 416.957 220.2C416.177 219.8 415.307 219.6 414.347 219.6C412.967 219.6 411.787 220.04 410.807 220.92C409.847 221.8 409.297 223.02 409.157 224.58H419.537ZM433.97 217.26C435.97 217.26 437.59 217.87 438.83 219.09C440.07 220.29 440.69 222.03 440.69 224.31V234H437.99V224.7C437.99 223.06 437.58 221.81 436.76 220.95C435.94 220.07 434.82 219.63 433.4 219.63C431.96 219.63 430.81 220.08 429.95 220.98C429.11 221.88 428.69 223.19 428.69 224.91V234H425.96V217.56H428.69V219.9C429.23 219.06 429.96 218.41 430.88 217.95C431.82 217.49 432.85 217.26 433.97 217.26ZM448.48 219.81V229.5C448.48 230.3 448.65 230.87 448.99 231.21C449.33 231.53 449.92 231.69 450.76 231.69H452.77V234H450.31C448.79 234 447.65 233.65 446.89 232.95C446.13 232.25 445.75 231.1 445.75 229.5V219.81H443.62V217.56H445.75V213.42H448.48V217.56H452.77V219.81H448.48ZM478.056 219.21C478.056 220.95 477.456 222.4 476.256 223.56C475.076 224.7 473.266 225.27 470.826 225.27H466.806V234H464.076V213.09H470.826C473.186 213.09 474.976 213.66 476.196 214.8C477.436 215.94 478.056 217.41 478.056 219.21ZM470.826 223.02C472.346 223.02 473.466 222.69 474.186 222.03C474.906 221.37 475.266 220.43 475.266 219.21C475.266 216.63 473.786 215.34 470.826 215.34H466.806V223.02H470.826ZM484.179 220.23C484.659 219.29 485.339 218.56 486.219 218.04C487.119 217.52 488.209 217.26 489.489 217.26V220.08H488.769C485.709 220.08 484.179 221.74 484.179 225.06V234H481.449V217.56H484.179V220.23ZM499.81 234.27C498.27 234.27 496.87 233.92 495.61 233.22C494.37 232.52 493.39 231.53 492.67 230.25C491.97 228.95 491.62 227.45 491.62 225.75C491.62 224.07 491.98 222.59 492.7 221.31C493.44 220.01 494.44 219.02 495.7 218.34C496.96 217.64 498.37 217.29 499.93 217.29C501.49 217.29 502.9 217.64 504.16 218.34C505.42 219.02 506.41 220 507.13 221.28C507.87 222.56 508.24 224.05 508.24 225.75C508.24 227.45 507.86 228.95 507.1 230.25C506.36 231.53 505.35 232.52 504.07 233.22C502.79 233.92 501.37 234.27 499.81 234.27ZM499.81 231.87C500.79 231.87 501.71 231.64 502.57 231.18C503.43 230.72 504.12 230.03 504.64 229.11C505.18 228.19 505.45 227.07 505.45 225.75C505.45 224.43 505.19 223.31 504.67 222.39C504.15 221.47 503.47 220.79 502.63 220.35C501.79 219.89 500.88 219.66 499.9 219.66C498.9 219.66 497.98 219.89 497.14 220.35C496.32 220.79 495.66 221.47 495.16 222.39C494.66 223.31 494.41 224.43 494.41 225.75C494.41 227.09 494.65 228.22 495.13 229.14C495.63 230.06 496.29 230.75 497.11 231.21C497.93 231.65 498.83 231.87 499.81 231.87ZM519 234.27C517.46 234.27 516.06 233.92 514.8 233.22C513.56 232.52 512.58 231.53 511.86 230.25C511.16 228.95 510.81 227.45 510.81 225.75C510.81 224.07 511.17 222.59 511.89 221.31C512.63 220.01 513.63 219.02 514.89 218.34C516.15 217.64 517.56 217.29 519.12 217.29C520.68 217.29 522.09 217.64 523.35 218.34C524.61 219.02 525.6 220 526.32 221.28C527.06 222.56 527.43 224.05 527.43 225.75C527.43 227.45 527.05 228.95 526.29 230.25C525.55 231.53 524.54 232.52 523.26 233.22C521.98 233.92 520.56 234.27 519 234.27ZM519 231.87C519.98 231.87 520.9 231.64 521.76 231.18C522.62 230.72 523.31 230.03 523.83 229.11C524.37 228.19 524.64 227.07 524.64 225.75C524.64 224.43 524.38 223.31 523.86 222.39C523.34 221.47 522.66 220.79 521.82 220.35C520.98 219.89 520.07 219.66 519.09 219.66C518.09 219.66 517.17 219.89 516.33 220.35C515.51 220.79 514.85 221.47 514.35 222.39C513.85 223.31 513.6 224.43 513.6 225.75C513.6 227.09 513.84 228.22 514.32 229.14C514.82 230.06 515.48 230.75 516.3 231.21C517.12 231.65 518.02 231.87 519 231.87ZM537.709 219.81H534.259V234H531.529V219.81H529.399V217.56H531.529V216.39C531.529 214.55 531.999 213.21 532.939 212.37C533.899 211.51 535.429 211.08 537.529 211.08V213.36C536.329 213.36 535.479 213.6 534.979 214.08C534.499 214.54 534.259 215.31 534.259 216.39V217.56H537.709V219.81Z" fill="#3CC4FF"/>
<rect x="216.5" y="52.5" width="148" height="133" stroke="black"/>
<path d="M255.177 127.1C255.177 120.3 256.71 114.2 259.777 108.8C262.844 103.333 267.01 99.0667 272.277 96C277.61 92.9333 283.51 91.4 289.977 91.4C297.577 91.4 304.21 93.2333 309.877 96.9C315.544 100.567 319.677 105.767 322.277 112.5H311.377C309.444 108.3 306.644 105.067 302.977 102.8C299.377 100.533 295.044 99.4 289.977 99.4C285.11 99.4 280.744 100.533 276.877 102.8C273.01 105.067 269.977 108.3 267.777 112.5C265.577 116.633 264.477 121.5 264.477 127.1C264.477 132.633 265.577 137.5 267.777 141.7C269.977 145.833 273.01 149.033 276.877 151.3C280.744 153.567 285.11 154.7 289.977 154.7C295.044 154.7 299.377 153.6 302.977 151.4C306.644 149.133 309.444 145.9 311.377 141.7H322.277C319.677 148.367 315.544 153.533 309.877 157.2C304.21 160.8 297.577 162.6 289.977 162.6C283.51 162.6 277.61 161.1 272.277 158.1C267.01 155.033 262.844 150.8 259.777 145.4C256.71 140 255.177 133.9 255.177 127.1Z" fill="black"/>
<path d="M246.929 68.47C246.489 66.25 245.119 65.14 242.819 65.14C241.039 65.14 239.709 65.83 238.829 67.21C237.949 68.57 237.519 70.82 237.539 73.96C237.999 72.92 238.759 72.11 239.819 71.53C240.899 70.93 242.099 70.63 243.419 70.63C245.479 70.63 247.119 71.27 248.339 72.55C249.579 73.83 250.199 75.6 250.199 77.86C250.199 79.22 249.929 80.44 249.389 81.52C248.869 82.6 248.069 83.46 246.989 84.1C245.929 84.74 244.639 85.06 243.119 85.06C241.059 85.06 239.449 84.6 238.289 83.68C237.129 82.76 236.319 81.49 235.859 79.87C235.399 78.25 235.169 76.25 235.169 73.87C235.169 66.53 237.729 62.86 242.849 62.86C244.809 62.86 246.349 63.39 247.469 64.45C248.589 65.51 249.249 66.85 249.449 68.47H246.929ZM242.849 72.94C241.989 72.94 241.179 73.12 240.419 73.48C239.659 73.82 239.039 74.35 238.559 75.07C238.099 75.77 237.869 76.63 237.869 77.65C237.869 79.17 238.309 80.41 239.189 81.37C240.069 82.31 241.329 82.78 242.969 82.78C244.369 82.78 245.479 82.35 246.299 81.49C247.139 80.61 247.559 79.43 247.559 77.95C247.559 76.39 247.159 75.17 246.359 74.29C245.559 73.39 244.389 72.94 242.849 72.94Z" fill="black"/>
<path d="M324.207 65.8V63.31H329.847V85H327.087V65.8H324.207ZM334.207 82.81C336.747 80.77 338.737 79.1 340.177 77.8C341.617 76.48 342.827 75.11 343.807 73.69C344.807 72.25 345.307 70.84 345.307 69.46C345.307 68.16 344.987 67.14 344.347 66.4C343.727 65.64 342.717 65.26 341.317 65.26C339.957 65.26 338.897 65.69 338.137 66.55C337.397 67.39 336.997 68.52 336.937 69.94H334.297C334.377 67.7 335.057 65.97 336.337 64.75C337.617 63.53 339.267 62.92 341.287 62.92C343.347 62.92 344.977 63.49 346.177 64.63C347.397 65.77 348.007 67.34 348.007 69.34C348.007 71 347.507 72.62 346.507 74.2C345.527 75.76 344.407 77.14 343.147 78.34C341.887 79.52 340.277 80.9 338.317 82.48H348.637V84.76H334.207V82.81Z" fill="black"/>
</svg>
